<svg width="76.441mm" height="18.428mm" version="1.1" viewBox="0 0 76.441 18.428" xmlns="http://www.w3.org/2000/svg">
 <g transform="translate(206.04 4.7675)">
  <g transform="matrix(.6572 0 0 .6572 -245.06 -60.799)" fill="#004e92" aria-label="AZUL">
   <path d="m59.372 113.3h9.44l5.28-9.88 5.28 9.88h9.44l-14.64-28z"/>
   <path d="m92.217 113.3h27.8v-7.4h-12.72l12.8-20.6h-28.28v6.72h14.08z"/>
   <path d="m149.61 85.298h-8.88l-0.08 13.48c0.08 5.6-1.68 7.2-4.04 7.2-2.24 0-3.6-1.6-3.6-7.2v-13.48h-8.84v13.4c0 8 4.48 14.48 12.48 14.48s12.92-6.48 12.92-14.48z"/>
   <path d="m157.49 85.298v27.96l18.2 0.04v-7.92h-10.16v-20.12z"/>
  </g>
 </g>
</svg>
